<?xml version="1.0" standalone="no"?>
<!DOCTYPE svg PUBLIC "-//W3C//DTD SVG 20010904//EN"
 "http://www.w3.org/TR/2001/REC-SVG-20010904/DTD/svg10.dtd">
<svg version="1.0" xmlns="http://www.w3.org/2000/svg"
 width="697.000000pt" height="697.000000pt" viewBox="0 0 697.000000 697.000000"
 preserveAspectRatio="xMidYMid meet">
<metadata>
Created by potrace 1.14, written by Peter Selinger 2001-2017
</metadata>
<g transform="translate(0.000000,697.000000) scale(0.100000,-0.100000)"
fill="#000000" stroke="none">
<path d="M1215 4083 c-130 -164 -234 -340 -284 -479 -54 -149 -54 -328 -1
-434 38 -75 150 -157 240 -175 75 -15 70 -3 70 -144 0 -131 9 -163 37 -140 9
9 13 45 13 140 0 140 -5 129 69 144 91 19 194 88 236 159 54 92 63 266 22 408
-26 87 -98 241 -150 318 -62 92 -190 260 -198 260 -5 0 -29 -26 -54 -57z m45
-52 c0 -6 -17 -30 -39 -54 l-38 -45 -2 -97 c0 -53 -4 -101 -7 -106 -11 -18
-32 -8 -44 21 -14 35 -50 42 -50 10 0 -13 7 -20 19 -20 29 0 33 -14 35 -100 1
-43 5 -82 9 -86 13 -13 7 -34 -9 -34 -11 0 -15 6 -11 19 5 20 -31 64 -86 108
l-28 21 24 54 c29 64 81 148 154 246 50 66 73 86 73 63z m97 -80 c35 -49 75
-109 89 -135 24 -44 25 -48 10 -71 -11 -16 -16 -47 -16 -94 0 -60 -3 -72 -20
-81 -26 -14 -45 -4 -30 15 7 9 11 43 9 90 -3 68 -1 76 18 90 25 18 21 45 -7
45 -17 0 -29 -26 -30 -65 0 -11 -5 -27 -10 -35 -17 -26 -30 8 -30 78 0 57 -3
67 -30 94 -27 27 -30 36 -30 94 0 35 3 64 8 64 4 -1 35 -41 69 -89z m-97 -139
c0 -101 -4 -140 -16 -163 -20 -39 -10 -69 22 -69 29 0 42 25 26 51 -7 11 -12
63 -12 130 0 111 0 112 20 94 25 -23 28 -111 4 -156 -19 -39 -4 -63 37 -57 23
4 29 0 34 -20 9 -35 -40 -86 -73 -77 -13 3 -44 3 -69 -1 -41 -6 -43 -7 -28
-24 22 -25 19 -176 -4 -185 -10 -4 -23 4 -34 19 -25 34 -43 33 -67 -6 -17 -28
-24 -32 -70 -33 -28 -1 -56 -7 -62 -13 -23 -23 -28 -11 -28 71 1 109 31 244
59 261 5 3 28 -13 50 -36 41 -43 54 -75 26 -64 -21 8 -19 -2 11 -37 38 -46 70
-68 88 -61 24 9 20 18 -14 31 l-30 11 30 30 c34 34 36 44 15 66 -9 9 -15 33
-15 62 0 41 2 45 16 34 13 -11 19 -10 37 8 18 18 20 26 10 41 -6 10 -12 59
-13 107 -2 116 -2 110 16 129 28 27 34 1 34 -143z m268 -154 c18 -46 39 -108
46 -138 19 -73 27 -190 15 -212 -15 -28 -48 -21 -86 17 -19 19 -38 35 -43 35
-4 0 -13 6 -20 14 -9 12 -5 16 24 22 61 11 29 24 -62 25 -67 1 -78 3 -49 9 22
4 52 20 70 39 34 32 74 40 94 20 15 -15 43 -4 43 16 0 21 -24 29 -47 17 -26
-14 -73 -3 -73 17 0 9 4 21 9 27 6 5 11 41 12 79 2 64 11 95 28 95 3 0 21 -37
39 -82z m-310 45 c-2 -10 -10 -18 -18 -18 -8 0 -16 8 -18 18 -2 12 3 17 18 17
15 0 20 -5 18 -17z m140 -30 c2 -8 -5 -13 -17 -13 -12 0 -21 6 -21 16 0 18 31
15 38 -3z m-78 -47 c0 -17 -27 -29 -35 -16 -4 6 -3 15 0 20 9 15 35 12 35 -4z
m130 -101 c0 -8 -7 -15 -15 -15 -8 0 -15 7 -15 15 0 8 7 15 15 15 8 0 15 -7
15 -15z m-28 -57 c-4 -3 -18 -8 -32 -10 -20 -2 -26 2 -28 20 -2 13 2 29 8 37
10 12 16 10 35 -13 13 -15 21 -30 17 -34z m-19 -103 c-7 -41 13 -54 54 -36 24
11 29 9 60 -20 18 -18 33 -37 33 -41 0 -14 -20 -9 -42 12 -14 13 -36 20 -60
20 -48 0 -88 32 -88 72 0 23 4 28 24 28 23 0 24 -3 19 -35z m47 -15 c0 -13 -5
-18 -15 -14 -8 4 -15 12 -15 20 0 8 7 14 15 14 8 0 15 -9 15 -20z m-260 -15
c0 -8 -7 -15 -15 -15 -8 0 -15 7 -15 15 0 8 7 15 15 15 8 0 15 -7 15 -15z m86
-30 c7 -17 64 -21 64 -5 0 17 26 11 45 -10 12 -14 31 -20 59 -20 46 0 59 -7
69 -32 9 -24 38 -23 44 1 6 23 26 33 48 25 20 -8 19 -16 -6 -69 -37 -78 -134
-146 -232 -160 -45 -7 -47 -6 -47 17 0 14 11 35 25 48 23 22 27 22 65 10 36
-12 43 -12 57 3 14 13 14 21 5 42 -13 28 -43 33 -61 11 -7 -8 -26 -18 -42 -21
-16 -4 -29 -11 -29 -16 0 -5 -4 -9 -10 -9 -5 0 -10 14 -10 30 0 17 4 30 9 30
16 0 23 38 11 60 -11 21 -54 28 -65 9 -6 -9 -62 -4 -74 7 -6 6 50 64 61 64 5
0 11 -7 14 -15z m-99 -22 c3 -7 -7 -19 -21 -28 -21 -14 -31 -15 -62 -5 -29 10
-38 10 -44 0 -14 -22 0 -42 24 -35 11 4 38 9 59 12 32 4 37 3 37 -16 0 -11 11
-28 25 -37 13 -9 27 -24 30 -34 3 -10 19 -33 35 -52 51 -57 35 -67 -60 -38
-98 30 -200 126 -200 187 0 29 33 55 61 49 13 -3 40 -2 59 3 41 10 52 9 57 -6z
m138 -64 c10 -15 -1 -23 -20 -15 -9 3 -13 10 -10 16 8 13 22 13 30 -1z m-87
-17 c2 -7 -3 -12 -12 -12 -9 0 -16 7 -16 16 0 17 22 14 28 -4z m57 -36 c10
-23 12 -43 6 -58 -8 -22 -8 -22 -25 9 -17 33 -21 65 -9 76 11 11 13 9 28 -27z
m163 -34 c2 -7 -3 -12 -12 -12 -9 0 -16 7 -16 16 0 17 22 14 28 -4z"/>
<path d="M990 3551 c0 -28 19 -36 38 -17 15 15 15 18 2 26 -24 15 -40 12 -40
-9z"/>
<path d="M970 3415 c-7 -8 -11 -15 -9 -16 17 -5 179 -8 197 -4 43 10 13 21
-65 23 -43 2 -85 5 -94 8 -9 2 -22 -2 -29 -11z"/>
<path d="M1522 3418 c-8 -8 -9 -15 -1 -25 22 -26 53 -8 41 25 -5 15 -24 16
-40 0z"/>
<path d="M2940 3736 c-11 -15 21 -113 168 -507 58 -155 53 -149 117 -149 53 0
55 1 55 28 0 15 -13 61 -29 102 -38 96 -91 241 -147 399 -24 69 -46 126 -47
128 -2 2 -26 5 -54 8 -37 4 -54 1 -63 -9z"/>
<path d="M3448 3742 c-11 -2 -20 -17 -24 -39 -12 -64 -4 -67 162 -73 150 -5
183 -13 211 -49 19 -24 15 -92 -6 -127 -26 -42 -75 -54 -230 -54 -72 0 -131
-1 -132 -2 0 -2 -3 -68 -5 -147 -3 -98 -1 -148 7 -157 7 -8 30 -14 55 -14 56
0 64 15 64 123 l0 84 103 6 c158 9 237 53 271 154 22 64 20 109 -7 168 -27 57
-78 97 -147 113 -44 11 -288 22 -322 14z"/>
<path d="M4119 3738 c-14 -6 -19 -17 -19 -45 0 -21 4 -43 8 -49 5 -8 65 -13
180 -15 l174 -4 29 -33 c39 -44 39 -90 0 -134 l-29 -33 -173 -3 c-120 -2 -176
-7 -181 -15 -9 -14 -11 -288 -2 -311 5 -12 20 -16 59 -16 65 0 67 5 65 123 -1
45 -2 88 -1 95 1 8 21 12 64 12 73 0 76 -3 147 -110 73 -110 85 -120 152 -120
45 0 58 3 58 15 0 8 -34 62 -75 120 -76 106 -85 125 -63 125 27 0 89 55 109
97 17 35 20 57 17 113 -3 59 -8 74 -34 107 -52 65 -110 81 -302 85 -90 2 -172
0 -183 -4z"/>
<path d="M5063 3743 c-25 -5 -28 -19 -14 -55 6 -13 24 -63 41 -113 17 -49 40
-114 51 -142 10 -29 28 -77 38 -105 42 -118 85 -224 94 -235 5 -8 32 -13 63
-13 51 0 54 2 54 24 0 14 -5 37 -11 53 -6 15 -56 149 -110 297 -54 148 -102
273 -107 278 -11 11 -70 18 -99 11z"/>
<path d="M2057 3733 c-4 -3 -7 -146 -7 -318 0 -228 3 -314 12 -323 17 -17 419
-17 436 0 15 15 16 84 1 94 -6 3 -79 6 -161 5 -102 -1 -154 2 -164 10 -11 9
-14 61 -14 275 l0 264 -48 0 c-27 0 -52 -3 -55 -7z"/>
<path d="M5770 3726 c-129 -36 -214 -130 -237 -262 -14 -81 -11 -85 60 -82
l62 3 6 58 c9 77 43 127 110 161 46 23 65 26 150 26 54 0 104 3 113 6 12 4 16
20 16 55 l0 49 -117 -1 c-65 0 -138 -6 -163 -13z"/>
<path d="M2846 3548 c-7 -18 -50 -124 -96 -236 -45 -111 -79 -209 -76 -218 8
-20 105 -16 117 6 30 53 129 313 129 338 0 38 -38 142 -51 142 -6 0 -16 -15
-23 -32z"/>
<path d="M4966 3572 c-18 -29 -186 -456 -186 -472 0 -19 5 -21 58 -18 l57 3
68 165 c74 182 78 210 37 290 -21 42 -25 46 -34 32z"/>
<path d="M5938 3429 c-12 -6 -18 -22 -18 -43 0 -69 -45 -134 -120 -171 -26
-14 -61 -18 -148 -19 -79 -1 -115 -5 -121 -14 -4 -7 -5 -31 -2 -55 l6 -42 90
-3 c159 -6 267 29 338 107 51 57 78 115 84 183 l6 58 -36 0 c-19 0 -41 2 -49
5 -7 2 -21 0 -30 -6z"/>
</g>
</svg>
